# Made in Blockbench 4.12.6 (Copyright (c) 2019 simibubi)
mtllib bogey_drive_wheel_pin.mtl

o Cube.040_Cube.047
v 1.8125 0.375 0.625
v 1.5625 0.375 0.375
v 1.5625 0.375 0.625
v 1.8125 0.125 0.625
v 1.5625 0.125 0.625
v 1.8125 0.125 0.375
v 1.5625 0.125 0.375
v 1.8125 0.375 0.375
v -0.5625 0.375 0.375
v -0.8125 0.375 0.625
v -0.5625 0.375 0.625
v -0.8125 0.125 0.625
v -0.5625 0.125 0.625
v -0.8125 0.125 0.375
v -0.5625 0.125 0.375
v -0.8125 0.375 0.375
vt 0.375 0.625
vt 0.5 0.5
vt 0.5 0.625
vt 0.375 0.625
vt 0.5 0.5
vt 0.5 0.625
vt 0.375 0.625
vt 0.5 0.5
vt 0.5 0.625
vt 0.375 0.625
vt 0.25 0.5
vt 0.375 0.5
vt 0.375 0.625
vt 0.5 0.5
vt 0.5 0.625
vt 0.5 0.5
vt 0.375 0.625
vt 0.5 0.625
vt 0.5 0.5
vt 0.375 0.625
vt 0.5 0.625
vt 0.5 0.5
vt 0.375 0.625
vt 0.5 0.625
vt 0.25 0.5
vt 0.375 0.625
vt 0.375 0.5
vt 0.5 0.5
vt 0.375 0.625
vt 0.5 0.625
vt 0.375 0.625
vt 0.375 0.5
vt 0.5 0.5
vt 0.375 0.625
vt 0.375 0.5
vt 0.5 0.5
vt 0.375 0.625
vt 0.375 0.5
vt 0.5 0.5
vt 0.375 0.625
vt 0.25 0.625
vt 0.25 0.5
vt 0.375 0.625
vt 0.375 0.5
vt 0.5 0.5
vt 0.5 0.5
vt 0.375 0.5
vt 0.375 0.625
vt 0.5 0.5
vt 0.375 0.5
vt 0.375 0.625
vt 0.5 0.5
vt 0.375 0.5
vt 0.375 0.625
vt 0.25 0.5
vt 0.25 0.625
vt 0.375 0.625
vt 0.5 0.5
vt 0.375 0.5
vt 0.375 0.625
vn 0 1 0
vn 0 0 1
vn 0 -1 0
vn 1 0 0
vn 0 0 -1
vn 0 1 0
vn 0 0 1
vn 0 -1 0
vn -1 0 0
vn 0 0 -1
vn 0 1 0
vn 0 0 1
vn 0 -1 0
vn 1 0 0
vn 0 0 -1
vn 0 1 0
vn 0 0 1
vn 0 -1 0
vn -1 0 0
vn 0 0 -1
usemtl m_37e128e9-cef4-a4c1-59b7-5ad007b68878
f 1/1/1 2/2/1 3/3/1
f 4/4/2 3/5/2 5/6/2
f 6/7/3 5/8/3 7/9/3
f 8/10/4 4/11/4 6/12/4
f 8/13/5 7/14/5 2/15/5
f 9/16/6 10/17/6 11/18/6
f 11/19/7 12/20/7 13/21/7
f 13/22/8 14/23/8 15/24/8
f 12/25/9 16/26/9 14/27/9
f 15/28/10 16/29/10 9/30/10
f 1/31/11 8/32/11 2/33/11
f 4/34/12 1/35/12 3/36/12
f 6/37/13 4/38/13 5/39/13
f 8/40/14 1/41/14 4/42/14
f 8/43/15 6/44/15 7/45/15
f 9/46/16 16/47/16 10/48/16
f 11/49/17 10/50/17 12/51/17
f 13/52/18 12/53/18 14/54/18
f 12/55/19 10/56/19 16/57/19
f 15/58/20 14/59/20 16/60/20