# Made in Blockbench 4.12.6 (Copyright (c) 2019 simibubi)
mtllib bogey_drive_belt.mtl

o Cube.030
v 1 0 -0.5625
v 1 0.31092999999999993 0.18815199999999999
v 1.1875 0.31092999999999993 0.18815199999999999
v 1.1875 0 -0.5625
v 0 0 -0.5625
v -0.1875 0 -0.5625
v -0.1875 0.31092999999999993 0.18815199999999999
v 0 0.31092999999999993 0.18815199999999999
v 1 0 1.5625
v 1.1875 0 1.5625
v 1.1875 0.31092999999999993 0.811848
v 1 0.31092999999999993 0.811848
v 0 0 1.5625
v 0 0.31092999999999993 0.811848
v -0.1875 0.31092999999999993 0.811848
v -0.1875 0 1.5625
v 1 -0.34375 0.439394
v 1.1875 -0.34375 0.439394
v 1.1875 -0.34375 -0.5606059999999999
v 1 -0.34375 -0.5606059999999999
v 1 -0.34375 1.439394
v 1.1875 -0.34375 1.439394
v 0 -0.40625 0.439394
v 0 -0.40625 -0.5606059999999999
v -0.1875 -0.40625 -0.5606059999999999
v -0.1875 -0.40625 0.439394
v 0 -0.40625 1.439394
v -0.1875 -0.40625 1.439394
v 1 -0.05774100000000004 -0.538583
v 1.1875 -0.05774100000000004 -0.538583
v 1.1875 0.2531890000000001 0.212069
v 1 0.2531890000000001 0.212069
v 0 -0.05774100000000004 -0.538583
v 0 0.2531890000000001 0.212069
v -0.1875 0.2531890000000001 0.212069
v -0.1875 -0.05774100000000004 -0.538583
v 1 -0.05774100000000004 1.538583
v 1 0.2531890000000001 0.7879309999999999
v 1.1875 0.2531890000000001 0.7879309999999999
v 1.1875 -0.05774100000000004 1.538583
v 0 -0.05774100000000004 1.538583
v -0.1875 -0.05774100000000004 1.538583
v -0.1875 0.2531890000000001 0.7879309999999999
v 0 0.2531890000000001 0.7879309999999999
v 1 -0.40625 0.439394
v 1 -0.40625 -0.5606059999999999
v 1.1875 -0.40625 -0.5606059999999999
v 1.1875 -0.40625 0.439394
v 1 -0.40625 1.439394
v 1.1875 -0.40625 1.439394
v 0 -0.46875 0.439394
v -0.1875 -0.46875 0.439394
v -0.1875 -0.46875 -0.5606059999999999
v 0 -0.46875 -0.5606059999999999
v 0 -0.46875 1.439394
v -0.1875 -0.46875 1.439394
vt 0.3125 0.1875
vt 0.3125 1
vt 0.125 1
vt 0.125 0.1875
vt 0.6875 0.1875
vt 0.875 0.1875
vt 0.875 1
vt 0.6875 1
vt 0.3125 1
vt 0.125 1
vt 0.125 0.1875
vt 0.3125 0.1875
vt 0.6875 1
vt 0.6875 0.1875
vt 0.875 0.1875
vt 0.875 1
vt 0.3125 0
vt 0.125 0
vt 0.125 1
vt 0.3125 1
vt 0.3125 0
vt 0.125 0
vt 0.125 1
vt 0.3125 1
vt 0.3125 1
vt 0.3125 0
vt 0.125 0
vt 0.125 1
vt 0.3125 0
vt 0.3125 1
vt 0.125 1
vt 0.125 0
vt 0.3125 0.1875
vt 0.125 0.1875
vt 0.125 1
vt 0.3125 1
vt 0.6875 0.1875
vt 0.6875 1
vt 0.875 1
vt 0.875 0.1875
vt 0.3125 1
vt 0.3125 0.1875
vt 0.125 0.1875
vt 0.125 1
vt 0.6875 1
vt 0.875 1
vt 0.875 0.1875
vt 0.6875 0.1875
vt 0.3125 0
vt 0.3125 1
vt 0.125 1
vt 0.125 0
vt 0.3125 0
vt 0.3125 1
vt 0.125 1
vt 0.125 0
vt 0.3125 1
vt 0.125 1
vt 0.125 0
vt 0.3125 0
vt 0.3125 0
vt 0.125 0
vt 0.125 1
vt 0.3125 1
vt 0.3125 0.1875
vt 0.125 0.1875
vt 0.125 0.1875
vt 0.3125 0.1875
vt 0.125 1
vt 0.3125 1
vt 0.3125 1
vt 0.125 1
vt 0.1875 0.1875
vt 0.1875 1
vt 0.125 1
vt 0.125 0.1875
vt 0.25 1
vt 0.25 0.1875
vt 0.3125 0.1875
vt 0.3125 1
vt 0.875 0.1875
vt 0.6875 0.1875
vt 0.6875 0.1875
vt 0.875 0.1875
vt 0.6875 1
vt 0.875 1
vt 0.875 1
vt 0.6875 1
vt 0.8125 1
vt 0.8125 0.1875
vt 0.875 0.1875
vt 0.875 1
vt 0.75 0.1875
vt 0.75 1
vt 0.6875 1
vt 0.6875 0.1875
vt 0.125 1
vt 0.3125 1
vt 0.3125 1
vt 0.125 1
vt 0.3125 0.1875
vt 0.125 0.1875
vt 0.125 0.1875
vt 0.3125 0.1875
vt 0.1875 0.1875
vt 0.1875 1
vt 0.125 1
vt 0.125 0.1875
vt 0.25 1
vt 0.25 0.1875
vt 0.3125 0.1875
vt 0.3125 1
vt 0.6875 1
vt 0.875 1
vt 0.875 1
vt 0.6875 1
vt 0.875 0.1875
vt 0.6875 0.1875
vt 0.6875 0.1875
vt 0.875 0.1875
vt 0.8125 1
vt 0.8125 0.1875
vt 0.875 0.1875
vt 0.875 1
vt 0.75 0.1875
vt 0.75 1
vt 0.6875 1
vt 0.6875 0.1875
vt 0.25 0
vt 0.25 1
vt 0.3125 1
vt 0.3125 0
vt 0.125 0
vt 0.3125 0
vt 0.3125 0
vt 0.125 0
vt 0.1875 1
vt 0.1875 0
vt 0.125 0
vt 0.125 1
vt 0.3125 1
vt 0.125 1
vt 0.125 1
vt 0.3125 1
vt 0.25 0
vt 0.25 1
vt 0.3125 1
vt 0.3125 0
vt 0.1875 1
vt 0.1875 0
vt 0.125 0
vt 0.125 1
vt 0.25 1
vt 0.25 0
vt 0.3125 0
vt 0.3125 1
vt 0.3125 0
vt 0.125 0
vt 0.125 0
vt 0.3125 0
vt 0.1875 1
vt 0.1875 0
vt 0.125 0
vt 0.125 1
vt 0.125 0
vt 0.3125 1
vt 0.3125 1
vt 0.125 0
vt 0.25 1
vt 0.25 0
vt 0.3125 0
vt 0.3125 1
vt 0.1875 0
vt 0.1875 1
vt 0.125 1
vt 0.125 0
vn 0 0.9238796365201566 -0.38268318126536965
vn 0 0.9238796365201566 -0.38268318126536965
vn 0 0.9238796365201566 0.38268318126536965
vn 0 0.9238796365201566 0.38268318126536965
vn 0 1 0
vn 0 1 0
vn 0 1 0
vn 0 1 0
vn 0 -0.9238796365201564 0.38268318126536977
vn 0 -0.9238796365201564 0.38268318126536977
vn 0 -0.9238796365201564 -0.38268318126536977
vn 0 -0.9238796365201564 -0.38268318126536977
vn 0 -1 0
vn 0 -1 0
vn 0 -1 0
vn 0 -1 0
vn 0 -0.3826819941922356 -0.9238801282206767
vn 0 0.38268199419223764 0.9238801282206758
vn 1 0 0
vn -1 0 0
vn 0 -0.3826819941922356 -0.9238801282206767
vn 0 0.38268199419223764 0.9238801282206758
vn -1 0 0
vn 1 0 0
vn 0 -0.3826819941922356 0.9238801282206767
vn 0 0.38268199419223764 -0.9238801282206758
vn 1 0 0
vn -1 0 0
vn 0 -0.3826819941922356 0.9238801282206767
vn 0 0.38268199419223764 -0.9238801282206758
vn -1 0 0
vn 1 0 0
vn -1 0 0
vn 0 0 1
vn 1 0 0
vn 0 0 -1
vn -1 0 0
vn 1 0 0
vn 1 0 0
vn 0 0 1
vn -1 0 0
vn 0 0 -1
vn 1 0 0
vn -1 0 0
usemtl m_f12f88a2-b3fe-8022-1136-843f4f366c32
f 1/1/1 2/2/1 3/3/1 4/4/1
f 5/5/2 6/6/2 7/7/2 8/8/2
f 9/9/3 10/10/3 11/11/3 12/12/3
f 13/13/4 14/14/4 15/15/4 16/16/4
f 17/17/5 18/18/5 19/19/5 20/20/5
f 21/21/6 22/22/6 18/23/6 17/24/6
f 23/25/7 24/26/7 25/27/7 26/28/7
f 27/29/8 23/30/8 26/31/8 28/32/8
f 29/33/9 30/34/9 31/35/9 32/36/9
f 33/37/10 34/38/10 35/39/10 36/40/10
f 37/41/11 38/42/11 39/43/11 40/44/11
f 41/45/12 42/46/12 43/47/12 44/48/12
f 45/49/13 46/50/13 47/51/13 48/52/13
f 49/53/14 45/54/14 48/55/14 50/56/14
f 51/57/15 52/58/15 53/59/15 54/60/15
f 55/61/16 56/62/16 52/63/16 51/64/16
f 1/65/17 4/66/17 30/67/17 29/68/17
f 3/69/18 2/70/18 32/71/18 31/72/18
f 4/73/19 3/74/19 31/75/19 30/76/19
f 2/77/20 1/78/20 29/79/20 32/80/20
f 6/81/21 5/82/21 33/83/21 36/84/21
f 8/85/22 7/86/22 35/87/22 34/88/22
f 7/89/23 6/90/23 36/91/23 35/92/23
f 5/93/24 8/94/24 34/95/24 33/96/24
f 10/97/25 9/98/25 37/99/25 40/100/25
f 12/101/26 11/102/26 39/103/26 38/104/26
f 11/105/27 10/106/27 40/107/27 39/108/27
f 9/109/28 12/110/28 38/111/28 37/112/28
f 13/113/29 16/114/29 42/115/29 41/116/29
f 15/117/30 14/118/30 44/119/30 43/120/30
f 16/121/31 15/122/31 43/123/31 42/124/31
f 14/125/32 13/126/32 41/127/32 44/128/32
f 21/129/33 17/130/33 45/131/33 49/132/33
f 22/133/34 21/134/34 49/135/34 50/136/34
f 19/137/35 18/138/35 48/139/35 47/140/35
f 20/141/36 19/142/36 47/143/36 46/144/36
f 17/145/37 20/146/37 46/147/37 45/148/37
f 18/149/38 22/150/38 50/151/38 48/152/38
f 23/153/39 27/154/39 55/155/39 51/156/39
f 27/157/40 28/158/40 56/159/40 55/160/40
f 26/161/41 25/162/41 53/163/41 52/164/41
f 25/165/42 24/166/42 54/167/42 53/168/42
f 24/169/43 23/170/43 51/171/43 54/172/43
f 28/173/44 26/174/44 52/175/44 56/176/44